<svg xmlns="http://www.w3.org/2000/svg" viewBox="0 0 200 70.62"><defs><style>.cls-1{fill:#a5cd39;}.cls-2{fill:#f48120;}.cls-3{fill:#fff;}.cls-4{fill:#00adee;}</style></defs><title>mts-logo-small</title><g id="Layer_2" data-name="Layer 2"><g id="Layer_1-2" data-name="Layer 1"><path class="cls-1" d="M95.19,0h47.38V10.05H95.19Zm17.23,11.49,12.92,2.87V41.64H112.42Z"/><path class="cls-2" d="M162.67,0h24.41Q200,0,200,10.05H168.41q-5.72,0-5.71,2.84v0q0,2.15,5.71,2.15l18.69,1.44Q200,17.95,200,28v2.15q0,11.49-12.92,11.49H162.67q-12.92,0-12.92-10.05h33q4.31,0,4.33-2.87,0-2.15-4.33-2.15l-20.1-1.44q-12.92-1.43-12.92-11.49V11.49Q149.75,0,162.67,0Z"/><path class="cls-3" d="M67.49,52.33H66.2V47l-2.39,4.78a1.07,1.07,0,0,1-1,.7.91.91,0,0,1-.61-.2,1.75,1.75,0,0,1-.31-.46L59.46,47v5.36h-1.3V46.39a.8.8,0,0,1,.31-.64,1.29,1.29,0,0,1,.85-.26,1.14,1.14,0,0,1,1.13.63L62.82,51l2.4-4.84a1.14,1.14,0,0,1,1.12-.64,1.27,1.27,0,0,1,.86.26.86.86,0,0,1,.3.67v5.92Z"/><path class="cls-3" d="M70.17,47.17v3.18a.85.85,0,0,0,.27.65,1.25,1.25,0,0,0,.81.19h1.28q1.06,0,1.06-.81V47.17h1.2v3.5q0,1.62-1.88,1.62H70.85Q69,52.29,69,50.67v-3.5Z"/><path class="cls-3" d="M77.47,52.29h-1.2V45.48h1.2Z"/><path class="cls-3" d="M81.67,48.1H80.15v4.19H79V45.46h1.2v1.79h1.52Z"/><path class="cls-3" d="M84.07,52.29h-1.2V47.17h1.2Zm0-6.8v.89H82.92v-.89Z"/><path class="cls-3" d="M93,52.27V49.14a.76.76,0,0,0-.5-.81,6.25,6.25,0,0,0-1.12-.05.86.86,0,0,0-.65.27.91.91,0,0,0-.16.63v3.1H89.41v-3.1c0-.44-.15-.71-.44-.82a5.17,5.17,0,0,0-1.1-.07q-.93,0-.93.87v3.13h-1.2V48.87q0-1.68,1.75-1.68h1.09a2.06,2.06,0,0,1,.84.14,1.56,1.56,0,0,1,.59.52,1.69,1.69,0,0,1,1.44-.66h1.07a1.72,1.72,0,0,1,1.26.45,1.64,1.64,0,0,1,.46,1.23v3.39H93Z"/><path class="cls-3" d="M101.52,49.19l-4.59,1.36v.17a.63.63,0,0,0,.31.59,1.73,1.73,0,0,0,.73.11h3.54v.88H97.74A2.74,2.74,0,0,1,96.3,52a1.19,1.19,0,0,1-.59-1.1V48.47q0-1.3,1.92-1.3h2.11q1.79,0,1.78,1.38v.64Zm-1.23-.5v-.07q0-.59-1-.59H98q-1.1,0-1.1.66v1Z"/><path class="cls-3" d="M108.66,45.47v5.38a1.18,1.18,0,0,1-.57,1.1,2.64,2.64,0,0,1-1.37.33h-2.11q-1.82,0-1.82-1.4V48.44a1.19,1.19,0,0,1,.49-1,2.13,2.13,0,0,1,1.32-.37h2.86v-1.6h1.2Zm-1.2,5.26V48.18c0-.14-.1-.21-.29-.21H105c-.65,0-1,.24-1,.73v2a.66.66,0,0,0,.18.53,1.29,1.29,0,0,0,.79.2h1.45C107.11,51.4,107.46,51.18,107.46,50.73Z"/><path class="cls-3" d="M111.16,52.29H110V47.17h1.2Zm0-6.8v.89H110v-.89Z"/><path class="cls-3" d="M118.65,51a1.12,1.12,0,0,1-.45.93,2,2,0,0,1-1.24.35h-2.29a2.45,2.45,0,0,1-1.31-.31,1,1,0,0,1-.53-.93v-.91a1.1,1.1,0,0,1,.47-1,2.22,2.22,0,0,1,1.3-.33h2.86a.72.72,0,0,0-.92-.82h-3.69v-.88h3.85q1.94,0,1.94,1.3V51Zm-1.2-.17v-1c0-.11-.09-.17-.28-.17h-2.29c-.57,0-.85.21-.85.64v.5a.46.46,0,0,0,.25.43,1.21,1.21,0,0,0,.61.15h1.72C117.17,51.4,117.45,51.21,117.45,50.84Z"/><path class="cls-3" d="M131.92,52.29h-1.78l-.43-.35a3,3,0,0,1-.74.3,4.81,4.81,0,0,1-.87.06h-1.88a3,3,0,0,1-1.55-.37,1.2,1.2,0,0,1-.68-1.06v-.63a1.28,1.28,0,0,1,.36-.87,3.13,3.13,0,0,1,1.21-.63q-.73-.78-.78-.84a2.57,2.57,0,0,1-.13-1,1.17,1.17,0,0,1,.53-1,2.38,2.38,0,0,1,1.4-.37h1.2a2.33,2.33,0,0,1,1.34.36,1.1,1.1,0,0,1,.53.95v.55a1.2,1.2,0,0,1-.6,1,6.83,6.83,0,0,1-1.38.61l1.91,1.44a1.17,1.17,0,0,0,.07-.4v-1H131v1.26a1.65,1.65,0,0,1-.37,1Zm-3.18-1.14-2.27-1.74c-.45.15-.71.25-.77.29a.62.62,0,0,0-.37.54v.41a.59.59,0,0,0,.36.52,1.71,1.71,0,0,0,.78.16h1.35A2.18,2.18,0,0,0,128.74,51.16Zm-.42-3.85V47q0-.63-.81-.63h-.72a.92.92,0,0,0-.58.17A.52.52,0,0,0,126,47v.29a.77.77,0,0,0,.25.54,5.66,5.66,0,0,0,.54.44l.88-.31Q128.32,47.73,128.32,47.3Z"/><path class="cls-3" d="M142.09,46.45h-2.32v5.84h-1.36V46.45h-2.3v-1h6Z"/><path class="cls-3" d="M147.59,49.19,143,50.55v.17a.63.63,0,0,0,.31.59,1.72,1.72,0,0,0,.73.11h3.55v.88h-3.77a2.74,2.74,0,0,1-1.44-.29,1.19,1.19,0,0,1-.59-1.1V48.47q0-1.3,1.91-1.3h2.11q1.79,0,1.79,1.38Zm-1.23-.5v-.07q0-.59-1-.59h-1.32q-1.11,0-1.11.66v1Z"/><path class="cls-3" d="M153.54,52.29h-2.72q-2,0-2-1.36V48.46q0-1.3,1.65-1.3h3V48H151a1.4,1.4,0,0,0-.74.14.58.58,0,0,0-.21.52v2c0,.45.34.68,1,.68h2.47Z"/><path class="cls-3" d="M155.91,45.48v1.71h2.68q1.92,0,1.91,1.63v3.45h-1.19V49.2a1,1,0,0,0-.21-.71,1.08,1.08,0,0,0-.75-.2H156.2c-.19,0-.29.09-.29.27v3.73h-1.2v-6.8Z"/><path class="cls-3" d="M166.26,52.28V49q0-.78-1-.78h-1.34q-1,0-1,.78v3.25h-1.2V48.72q0-1.57,1.82-1.57h2.11q1.81,0,1.81,1.57v3.56Z"/><path class="cls-3" d="M174.56,51a1.11,1.11,0,0,1-.59,1,2.38,2.38,0,0,1-1.26.27h-2.08a2.45,2.45,0,0,1-1.43-.34,1.08,1.08,0,0,1-.48-.93V48.47a1.15,1.15,0,0,1,.6-1,2.53,2.53,0,0,1,1.3-.27h2.08a2.36,2.36,0,0,1,1.27.27,1.14,1.14,0,0,1,.57,1V51Zm-1.2-.24V48.71a.55.55,0,0,0-.28-.52,1.23,1.23,0,0,0-.69-.16H171a1.35,1.35,0,0,0-.73.16.55.55,0,0,0-.29.52v2.07a.53.53,0,0,0,.29.5,1.19,1.19,0,0,0,.64.14h1.59a1.08,1.08,0,0,0,.61-.14A.52.52,0,0,0,173.36,50.79Z"/><path class="cls-3" d="M177.29,52.29h-1.2V45.48h1.2Z"/><path class="cls-3" d="M184.43,51a1.1,1.1,0,0,1-.59,1,2.37,2.37,0,0,1-1.25.27h-2.08a2.45,2.45,0,0,1-1.43-.34,1.08,1.08,0,0,1-.47-.93V48.47a1.15,1.15,0,0,1,.6-1,2.54,2.54,0,0,1,1.3-.27h2.08a2.35,2.35,0,0,1,1.27.27,1.13,1.13,0,0,1,.57,1Zm-1.2-.24V48.71a.55.55,0,0,0-.28-.52,1.22,1.22,0,0,0-.69-.16h-1.42a1.35,1.35,0,0,0-.73.16.55.55,0,0,0-.29.52v2.07a.53.53,0,0,0,.29.5,1.2,1.2,0,0,0,.64.14h1.59a1.08,1.08,0,0,0,.61-.14A.52.52,0,0,0,183.23,50.79Z"/><path class="cls-3" d="M191.81,52.87q0,1.44-2,1.44H186V53.4h3.66a1.06,1.06,0,0,0,.85-.27,1.35,1.35,0,0,0,.14-.71H188a2.58,2.58,0,0,1-1.49-.35,1.13,1.13,0,0,1-.5-1V48.61a1.37,1.37,0,0,1,.43-1.12,2.24,2.24,0,0,1,1.44-.36h2a2.75,2.75,0,0,1,1.49.31,1.19,1.19,0,0,1,.46,1.06v4.37Zm-1.18-1.56V48.8a.62.62,0,0,0-.2-.54,1.25,1.25,0,0,0-.8-.25h-1.5c-.63,0-.95.24-.95.73v2.07q0,.7,1,.7h2.13C190.53,51.52,190.62,51.45,190.62,51.31Z"/><path class="cls-3" d="M197.38,52.28h-2.21a1.92,1.92,0,0,1-1.32-.42,1.57,1.57,0,0,1-.54-1.24V47.17h1.19v3.14q0,.87.93.87h2.16c.2,0,.31-.11.31-.33V47.18h1.2v5.64a1.71,1.71,0,0,1-.47,1.25,1.73,1.73,0,0,1-1.3.48h-3.77V53.42H197a.85.85,0,0,0,.79-.32,1.92,1.92,0,0,0,.12-.82v-.14Z"/><polygon class="cls-2" points="186.65 70.62 191.19 65.34 191.57 64.9 191.16 64.48 187.73 60.94 193.24 60.94 197.13 64.95 193.31 69.39 191.34 69.39 194.83 65.34 195.21 64.9 194.8 64.48 192.41 62.08 190.64 62.08 193.49 64.95 188.61 70.62 190.04 70.62 190.28 70.62 192.25 70.62 193.78 70.62 193.92 70.62 198.47 65.34 198.85 64.9 198.44 64.48 193.81 59.7 193.68 59.7 192.05 59.7 186.55 59.7 186.55 59.72 186.53 59.7 184.77 59.7 189.85 64.95 184.97 70.62 186.65 70.62"/><path class="cls-1" d="M5.72,46.76V41.61H0v7.52a2.86,2.86,0,1,0,5.72,0Z"/><path class="cls-4" d="M5.72,41.61H13.2V37.3c0-.11,0-.21,0-.31V30.46a3.74,3.74,0,0,0-7.48,0V41.61Z"/><path class="cls-1" d="M13.21,41.61v5.14c0,.09,0,.18,0,.27V61.51a4.79,4.79,0,1,0,9.57,0V41.61Z"/><path class="cls-4" d="M76.52,0q-5.74,0-8.61,4.31L55,24.41,42.07,4.31Q39.19,0,33.45,0H22V41.64H34.89V14.36L52.12,41.64h5.74L75.09,14.36V41.64H88V0Z"/><path class="cls-1" d="M33.84,41.61V55.7a3.75,3.75,0,0,0,7.49,0V41.61Z"/><path class="cls-4" d="M41.34,41.07v.54h5.72V35.07c0-.91-1.29-1.65-2.86-1.65s-2.86.74-2.86,1.65v6Z"/><path class="cls-1" d="M47.29,41.61v5.86c0,1,1.47,1.88,3.26,1.88s3.26-.84,3.26-1.88V41.61Z"/><path class="cls-3" d="M138.23,62.16h-3.48q-.85,0-1.06.31a1.91,1.91,0,0,0-.12.87.62.62,0,0,0,.32.55,1.79,1.79,0,0,0,.87.16h1.44a2.62,2.62,0,0,1,1.47.37,1.18,1.18,0,0,1,.55,1v1.08a1.22,1.22,0,0,1-.57,1.08,2.77,2.77,0,0,1-1.55.37h-3.88V67h3.48q.87,0,1.08-.34a2.57,2.57,0,0,0,.1-.92q0-.69-1.13-.69h-1.44a2.83,2.83,0,0,1-1.47-.34,1.15,1.15,0,0,1-.63-1V62.6a1.29,1.29,0,0,1,.68-1.14,2.62,2.62,0,0,1,1.38-.3h4v1Z"/><path class="cls-3" d="M145.5,66.71a1.1,1.1,0,0,1-.59,1,2.36,2.36,0,0,1-1.25.27h-2.08a2.45,2.45,0,0,1-1.43-.34,1.08,1.08,0,0,1-.47-.93V64.16a1.15,1.15,0,0,1,.6-1,2.54,2.54,0,0,1,1.3-.27h2.08a2.35,2.35,0,0,1,1.27.27,1.13,1.13,0,0,1,.57,1v2.56Zm-1.2-.24V64.4a.56.56,0,0,0-.28-.52,1.23,1.23,0,0,0-.7-.16H141.9a1.35,1.35,0,0,0-.73.16.55.55,0,0,0-.29.52v2.07a.53.53,0,0,0,.29.5,1.2,1.2,0,0,0,.64.14h1.59A1.1,1.1,0,0,0,144,67,.53.53,0,0,0,144.3,66.48Z"/><path class="cls-3" d="M148.23,68H147V61.17h1.2Z"/><path class="cls-3" d="M150.91,62.86V66a.85.85,0,0,0,.27.65,1.24,1.24,0,0,0,.81.19h1.28q1.06,0,1.06-.81V62.86h1.2v3.5q0,1.62-1.88,1.62h-2.06q-1.88,0-1.88-1.62v-3.5Z"/><path class="cls-3" d="M159.73,63.79h-1.52V68H157V61.15h1.2v1.79h1.52Z"/><path class="cls-3" d="M162.13,68h-1.2V62.86h1.2Zm0-6.8v.89H161v-.89Z"/><path class="cls-3" d="M169.48,66.71a1.1,1.1,0,0,1-.59,1,2.36,2.36,0,0,1-1.25.27h-2.08a2.45,2.45,0,0,1-1.43-.34,1.08,1.08,0,0,1-.47-.93V64.16a1.15,1.15,0,0,1,.6-1,2.54,2.54,0,0,1,1.3-.27h2.08a2.35,2.35,0,0,1,1.27.27,1.13,1.13,0,0,1,.57,1v2.56Zm-1.2-.24V64.4a.56.56,0,0,0-.28-.52,1.23,1.23,0,0,0-.7-.16h-1.42a1.35,1.35,0,0,0-.73.16.55.55,0,0,0-.29.52v2.07a.53.53,0,0,0,.29.5,1.2,1.2,0,0,0,.64.14h1.59A1.1,1.1,0,0,0,168,67,.53.53,0,0,0,168.28,66.48Z"/><path class="cls-3" d="M175.28,68V64.72q0-.78-1-.78h-1.34q-1,0-1,.78V68h-1.2V64.41q0-1.57,1.83-1.57h2.11q1.81,0,1.81,1.57V68Z"/><path class="cls-3" d="M183,63.74h-3.17a1.54,1.54,0,0,0-.64.1.42.42,0,0,0-.29.38v.21q0,.53,1,.53h1.57a1.8,1.8,0,0,1,1.12.33,1,1,0,0,1,.44.85v.63a1.11,1.11,0,0,1-.44.87,1.15,1.15,0,0,1-.56.29,3.37,3.37,0,0,1-.7.05h-3.59V67.1H181a.62.62,0,0,0,.8-.74q0-.53-.78-.52h-1.48a2.39,2.39,0,0,1-1.24-.29,1,1,0,0,1-.54-.85V64a1,1,0,0,1,.63-.92,2.37,2.37,0,0,1,1.17-.23H183Z"/></g></g></svg>